<svg xmlns="http://www.w3.org/2000/svg" xmlns:xlink="http://www.w3.org/1999/xlink" width="1080" zoomAndPan="magnify" viewBox="0 0 810 809.999993" height="1080" preserveAspectRatio="xMidYMid meet" version="1.0"><defs><clipPath id="203f5c26b4"><path d="M 267 117.453125 L 474 117.453125 L 474 324 L 267 324 Z M 267 117.453125 " clip-rule="nonzero"/></clipPath></defs><path fill="#007bff" d="M 450.742188 339.105469 C 447.796875 341.101562 444.777344 342.988281 441.691406 344.757812 C 438.601562 346.53125 435.453125 348.1875 432.242188 349.726562 C 429.03125 351.261719 425.769531 352.679688 422.453125 353.972656 C 419.136719 355.269531 415.777344 356.4375 412.375 357.484375 C 408.972656 358.527344 405.535156 359.445312 402.0625 360.234375 C 398.589844 361.019531 395.09375 361.679688 391.574219 362.207031 C 388.054688 362.734375 384.519531 363.132812 380.96875 363.398438 C 377.417969 363.660156 373.863281 363.792969 370.300781 363.792969 C 366.742188 363.792969 363.1875 363.660156 359.636719 363.398438 C 356.085938 363.132812 352.550781 362.734375 349.03125 362.207031 C 345.511719 361.679688 342.015625 361.019531 338.542969 360.234375 C 335.070312 359.445312 331.632812 358.527344 328.230469 357.484375 C 324.828125 356.4375 321.46875 355.269531 318.152344 353.972656 C 314.835938 352.679688 311.570312 351.261719 308.359375 349.726562 C 305.148438 348.1875 302 346.53125 298.914062 344.757812 C 295.824219 342.988281 292.808594 341.101562 289.863281 339.105469 C 285.015625 341.09375 280.253906 343.257812 275.566406 345.597656 C 270.882812 347.9375 266.289062 350.445312 261.789062 353.125 C 257.289062 355.804688 252.894531 358.644531 248.601562 361.648438 C 244.3125 364.652344 240.136719 367.808594 236.082031 371.117188 C 232.023438 374.429688 228.09375 377.886719 224.289062 381.484375 C 220.488281 385.085938 216.820312 388.824219 213.292969 392.695312 C 209.765625 396.566406 206.386719 400.558594 203.15625 404.679688 C 199.921875 408.800781 196.84375 413.035156 193.925781 417.382812 C 191.003906 421.730469 188.25 426.179688 185.65625 430.730469 C 183.066406 435.28125 180.644531 439.921875 178.394531 444.648438 C 176.144531 449.378906 174.070312 454.183594 172.175781 459.066406 C 170.28125 463.949219 168.570312 468.894531 167.039062 473.902344 C 165.507812 478.910156 164.164062 483.96875 163.007812 489.074219 C 161.847656 494.183594 160.878906 499.328125 160.101562 504.503906 C 159.324219 509.683594 158.738281 514.886719 158.34375 520.105469 C 157.949219 525.328125 157.746094 530.558594 157.738281 535.796875 C 157.738281 537.226562 157.808594 538.65625 157.945312 540.078125 C 158.085938 541.503906 158.296875 542.917969 158.574219 544.320312 C 158.851562 545.722656 159.199219 547.109375 159.613281 548.480469 C 160.027344 549.847656 160.507812 551.195312 161.058594 552.515625 C 161.605469 553.835938 162.214844 555.128906 162.890625 556.390625 C 163.5625 557.652344 164.296875 558.878906 165.09375 560.070312 C 165.886719 561.257812 166.738281 562.40625 167.644531 563.511719 C 168.554688 564.621094 169.511719 565.679688 170.523438 566.691406 C 171.535156 567.703125 172.59375 568.660156 173.703125 569.570312 C 174.808594 570.476562 175.957031 571.328125 177.144531 572.121094 C 178.335938 572.917969 179.5625 573.652344 180.824219 574.324219 C 182.085938 575 183.375 575.609375 184.699219 576.15625 C 186.019531 576.703125 187.367188 577.1875 188.734375 577.601562 C 190.105469 578.015625 191.492188 578.363281 192.894531 578.640625 C 194.296875 578.917969 195.710938 579.128906 197.136719 579.269531 C 198.558594 579.40625 199.988281 579.476562 201.417969 579.476562 L 539.457031 579.476562 C 540.886719 579.476562 542.316406 579.40625 543.738281 579.269531 C 545.164062 579.128906 546.578125 578.917969 547.980469 578.640625 C 549.382812 578.363281 550.769531 578.015625 552.140625 577.601562 C 553.507812 577.1875 554.855469 576.703125 556.175781 576.15625 C 557.5 575.609375 558.789062 575 560.054688 574.324219 C 561.316406 573.652344 562.539062 572.917969 563.730469 572.121094 C 564.921875 571.328125 566.070312 570.476562 567.175781 569.570312 C 568.28125 568.660156 569.339844 567.703125 570.351562 566.691406 C 571.363281 565.679688 572.324219 564.621094 573.230469 563.511719 C 574.136719 562.40625 574.988281 561.257812 575.785156 560.070312 C 576.578125 558.878906 577.3125 557.652344 577.988281 556.390625 C 578.660156 555.128906 579.273438 553.839844 579.820312 552.515625 C 580.367188 551.195312 580.847656 549.847656 581.261719 548.480469 C 581.675781 547.109375 582.023438 545.722656 582.300781 544.320312 C 582.582031 542.917969 582.789062 541.503906 582.929688 540.078125 C 583.066406 538.65625 583.136719 537.226562 583.136719 535.796875 C 583.132812 530.554688 582.933594 525.320312 582.542969 520.089844 C 582.152344 514.863281 581.566406 509.65625 580.789062 504.472656 C 580.011719 499.289062 579.046875 494.140625 577.886719 489.027344 C 576.730469 483.914062 575.386719 478.851562 573.851562 473.835938 C 572.320312 468.824219 570.605469 463.875 568.707031 458.988281 C 566.808594 454.101562 564.730469 449.292969 562.476562 444.558594 C 560.222656 439.824219 557.796875 435.183594 555.199219 430.628906 C 552.601562 426.078125 549.839844 421.625 546.910156 417.277344 C 543.984375 412.925781 540.898438 408.691406 537.660156 404.570312 C 534.417969 400.449219 531.03125 396.457031 527.492188 392.585938 C 523.957031 388.714844 520.285156 384.980469 516.472656 381.382812 C 512.660156 377.785156 508.71875 374.332031 504.652344 371.027344 C 500.582031 367.71875 496.398438 364.566406 492.097656 361.570312 C 487.796875 358.574219 483.390625 355.738281 478.878906 353.066406 C 474.367188 350.398438 469.765625 347.894531 465.070312 345.566406 C 460.375 343.234375 455.597656 341.082031 450.742188 339.105469 Z M 450.742188 339.105469 " fill-opacity="1" fill-rule="nonzero"/><g clip-path="url(#203f5c26b4)"><path fill="#007bff" d="M 267.074219 220.003906 C 267.074219 221.691406 267.117188 223.378906 267.203125 225.066406 C 267.289062 226.753906 267.414062 228.4375 267.582031 230.117188 C 267.75 231.796875 267.957031 233.472656 268.207031 235.140625 C 268.457031 236.8125 268.75 238.472656 269.082031 240.128906 C 269.410156 241.785156 269.785156 243.429688 270.195312 245.070312 C 270.609375 246.707031 271.058594 248.332031 271.550781 249.949219 C 272.042969 251.5625 272.574219 253.164062 273.144531 254.753906 C 273.71875 256.34375 274.324219 257.917969 274.972656 259.476562 C 275.621094 261.035156 276.308594 262.578125 277.03125 264.105469 C 277.753906 265.628906 278.515625 267.136719 279.3125 268.625 C 280.109375 270.113281 280.945312 271.582031 281.8125 273.027344 C 282.683594 274.476562 283.585938 275.902344 284.527344 277.304688 C 285.464844 278.707031 286.4375 280.085938 287.445312 281.441406 C 288.453125 282.796875 289.492188 284.125 290.566406 285.429688 C 291.636719 286.734375 292.742188 288.011719 293.875 289.261719 C 295.011719 290.511719 296.175781 291.734375 297.371094 292.925781 C 298.566406 294.121094 299.789062 295.28125 301.042969 296.414062 C 302.292969 297.546875 303.574219 298.648438 304.878906 299.71875 C 306.1875 300.789062 307.515625 301.828125 308.875 302.832031 C 310.230469 303.835938 311.613281 304.808594 313.015625 305.746094 C 314.421875 306.679688 315.847656 307.582031 317.296875 308.449219 C 318.746094 309.316406 320.214844 310.148438 321.703125 310.941406 C 323.195312 311.738281 324.703125 312.496094 326.230469 313.214844 C 327.757812 313.9375 329.300781 314.621094 330.859375 315.265625 C 332.421875 315.910156 333.996094 316.515625 335.585938 317.085938 C 337.175781 317.652344 338.78125 318.179688 340.394531 318.671875 C 342.011719 319.160156 343.640625 319.609375 345.277344 320.019531 C 346.914062 320.429688 348.5625 320.796875 350.21875 321.125 C 351.875 321.453125 353.539062 321.742188 355.207031 321.988281 C 356.878906 322.234375 358.554688 322.441406 360.234375 322.605469 C 361.914062 322.769531 363.597656 322.894531 365.285156 322.976562 C 366.972656 323.058594 368.660156 323.097656 370.347656 323.097656 C 372.035156 323.097656 373.722656 323.054688 375.410156 322.972656 C 377.097656 322.886719 378.78125 322.761719 380.460938 322.597656 C 382.140625 322.429688 383.816406 322.222656 385.484375 321.976562 C 387.15625 321.726562 388.820312 321.4375 390.472656 321.109375 C 392.128906 320.777344 393.777344 320.40625 395.414062 319.996094 C 397.054688 319.585938 398.679688 319.136719 400.296875 318.644531 C 401.910156 318.152344 403.511719 317.625 405.101562 317.054688 C 406.691406 316.484375 408.265625 315.878906 409.828125 315.230469 C 411.386719 314.585938 412.929688 313.898438 414.457031 313.179688 C 415.984375 312.457031 417.488281 311.695312 418.980469 310.902344 C 420.46875 310.105469 421.9375 309.273438 423.382812 308.402344 C 424.832031 307.535156 426.257812 306.632812 427.664062 305.695312 C 429.066406 304.753906 430.445312 303.785156 431.800781 302.777344 C 433.160156 301.773438 434.488281 300.734375 435.792969 299.660156 C 437.101562 298.589844 438.378906 297.488281 439.628906 296.355469 C 440.878906 295.21875 442.101562 294.054688 443.296875 292.863281 C 444.492188 291.667969 445.652344 290.445312 446.789062 289.195312 C 447.921875 287.945312 449.023438 286.664062 450.097656 285.359375 C 451.167969 284.054688 452.207031 282.726562 453.210938 281.367188 C 454.21875 280.011719 455.191406 278.632812 456.128906 277.230469 C 457.066406 275.824219 457.96875 274.398438 458.835938 272.949219 C 459.707031 271.503906 460.539062 270.035156 461.335938 268.546875 C 462.128906 267.054688 462.890625 265.546875 463.613281 264.023438 C 464.335938 262.496094 465.019531 260.953125 465.664062 259.394531 C 466.3125 257.832031 466.917969 256.257812 467.488281 254.667969 C 468.058594 253.078125 468.585938 251.476562 469.078125 249.859375 C 469.570312 248.246094 470.019531 246.617188 470.429688 244.980469 C 470.839844 243.34375 471.210938 241.695312 471.542969 240.039062 C 471.871094 238.382812 472.160156 236.722656 472.410156 235.050781 C 472.65625 233.382812 472.863281 231.707031 473.03125 230.027344 C 473.195312 228.34375 473.320312 226.664062 473.40625 224.976562 C 473.488281 223.289062 473.53125 221.601562 473.53125 219.914062 C 473.53125 218.226562 473.492188 216.539062 473.410156 214.851562 C 473.328125 213.164062 473.203125 211.480469 473.039062 209.800781 C 472.875 208.121094 472.667969 206.445312 472.421875 204.773438 C 472.175781 203.105469 471.886719 201.441406 471.558594 199.785156 C 471.230469 198.128906 470.863281 196.480469 470.453125 194.84375 C 470.042969 193.203125 469.59375 191.578125 469.105469 189.960938 C 468.617188 188.347656 468.085938 186.742188 467.519531 185.152344 C 466.953125 183.5625 466.34375 181.988281 465.699219 180.425781 C 465.054688 178.867188 464.371094 177.324219 463.652344 175.796875 C 462.929688 174.269531 462.171875 172.761719 461.375 171.269531 C 460.582031 169.78125 459.75 168.3125 458.882812 166.863281 C 458.015625 165.414062 457.113281 163.988281 456.179688 162.582031 C 455.242188 161.179688 454.269531 159.796875 453.265625 158.441406 C 452.261719 157.082031 451.222656 155.75 450.152344 154.445312 C 449.082031 153.140625 447.980469 151.859375 446.847656 150.609375 C 445.714844 149.355469 444.554688 148.132812 443.359375 146.9375 C 442.167969 145.742188 440.945312 144.578125 439.695312 143.441406 C 438.445312 142.308594 437.167969 141.203125 435.863281 140.132812 C 434.558594 139.058594 433.230469 138.019531 431.875 137.011719 C 430.519531 136.003906 429.140625 135.03125 427.738281 134.09375 C 426.335938 133.152344 424.910156 132.25 423.460938 131.378906 C 422.015625 130.507812 420.546875 129.675781 419.058594 128.878906 C 417.570312 128.082031 416.0625 127.320312 414.539062 126.597656 C 413.011719 125.875 411.46875 125.1875 409.910156 124.539062 C 408.351562 123.890625 406.777344 123.28125 405.1875 122.710938 C 403.597656 122.140625 401.996094 121.609375 400.382812 121.117188 C 398.765625 120.625 397.140625 120.175781 395.503906 119.761719 C 393.867188 119.351562 392.21875 118.976562 390.5625 118.648438 C 388.90625 118.316406 387.246094 118.023438 385.574219 117.773438 C 383.90625 117.523438 382.230469 117.316406 380.550781 117.148438 C 378.871094 116.980469 377.1875 116.855469 375.5 116.769531 C 373.8125 116.683594 372.125 116.640625 370.4375 116.640625 C 368.746094 116.636719 367.054688 116.679688 365.363281 116.757812 C 363.675781 116.839844 361.988281 116.964844 360.304688 117.128906 C 358.621094 117.292969 356.941406 117.5 355.265625 117.746094 C 353.59375 117.996094 351.925781 118.28125 350.265625 118.613281 C 348.605469 118.941406 346.957031 119.308594 345.316406 119.71875 C 343.671875 120.128906 342.042969 120.582031 340.421875 121.070312 C 338.804688 121.5625 337.199219 122.089844 335.605469 122.660156 C 334.011719 123.230469 332.433594 123.839844 330.867188 124.484375 C 329.304688 125.132812 327.757812 125.816406 326.230469 126.539062 C 324.699219 127.261719 323.1875 128.023438 321.695312 128.820312 C 320.203125 129.617188 318.730469 130.449219 317.28125 131.320312 C 315.828125 132.191406 314.398438 133.09375 312.992188 134.035156 C 311.585938 134.972656 310.203125 135.949219 308.84375 136.957031 C 307.484375 137.964844 306.148438 139.003906 304.84375 140.078125 C 303.535156 141.148438 302.253906 142.253906 301 143.390625 C 299.746094 144.527344 298.519531 145.695312 297.324219 146.890625 C 296.128906 148.085938 294.960938 149.3125 293.824219 150.566406 C 292.6875 151.820312 291.582031 153.101562 290.511719 154.40625 C 289.4375 155.714844 288.398438 157.050781 287.390625 158.410156 C 286.382812 159.769531 285.40625 161.152344 284.46875 162.558594 C 283.527344 163.964844 282.625 165.394531 281.753906 166.847656 C 280.882812 168.296875 280.050781 169.769531 279.253906 171.261719 C 278.457031 172.753906 277.695312 174.265625 276.972656 175.796875 C 276.25 177.324219 275.566406 178.871094 274.917969 180.433594 C 274.273438 182 273.664062 183.578125 273.09375 185.171875 C 272.527344 186.765625 271.996094 188.371094 271.503906 189.988281 C 271.015625 191.609375 270.566406 193.238281 270.15625 194.882812 C 269.746094 196.523438 269.375 198.171875 269.046875 199.832031 C 268.714844 201.492188 268.429688 203.160156 268.179688 204.832031 C 267.933594 206.507812 267.726562 208.1875 267.5625 209.871094 C 267.398438 211.554688 267.273438 213.242188 267.195312 214.929688 C 267.113281 216.621094 267.070312 218.3125 267.074219 220.003906 Z M 267.074219 220.003906 " fill-opacity="1" fill-rule="nonzero"/></g><path fill="#007bff" d="M 720.710938 314.496094 L 652.128906 314.496094 L 652.128906 245.859375 C 652.128906 245.191406 652.09375 244.527344 652.03125 243.863281 C 651.964844 243.199219 651.867188 242.542969 651.738281 241.890625 C 651.605469 241.234375 651.445312 240.589844 651.25 239.953125 C 651.058594 239.316406 650.835938 238.6875 650.578125 238.070312 C 650.324219 237.457031 650.039062 236.855469 649.726562 236.265625 C 649.410156 235.679688 649.070312 235.109375 648.699219 234.554688 C 648.328125 234 647.933594 233.464844 647.507812 232.949219 C 647.085938 232.433594 646.640625 231.941406 646.167969 231.472656 C 645.695312 231 645.203125 230.550781 644.6875 230.128906 C 644.171875 229.707031 643.640625 229.3125 643.085938 228.941406 C 642.53125 228.570312 641.960938 228.226562 641.371094 227.914062 C 640.785156 227.601562 640.183594 227.316406 639.566406 227.058594 C 638.953125 226.804688 638.324219 226.582031 637.6875 226.386719 C 637.050781 226.195312 636.402344 226.03125 635.75 225.902344 C 635.097656 225.773438 634.4375 225.675781 633.773438 225.609375 C 633.113281 225.542969 632.445312 225.511719 631.78125 225.511719 C 631.113281 225.511719 630.449219 225.542969 629.785156 225.609375 C 629.121094 225.675781 628.464844 225.773438 627.8125 225.902344 C 627.15625 226.03125 626.511719 226.195312 625.875 226.386719 C 625.234375 226.582031 624.609375 226.804688 623.992188 227.058594 C 623.378906 227.316406 622.777344 227.601562 622.1875 227.914062 C 621.601562 228.226562 621.03125 228.570312 620.476562 228.941406 C 619.921875 229.3125 619.386719 229.707031 618.871094 230.128906 C 618.355469 230.550781 617.863281 231 617.394531 231.472656 C 616.921875 231.941406 616.472656 232.433594 616.050781 232.949219 C 615.628906 233.464844 615.230469 234 614.863281 234.554688 C 614.492188 235.109375 614.148438 235.679688 613.835938 236.265625 C 613.519531 236.855469 613.238281 237.457031 612.980469 238.070312 C 612.726562 238.6875 612.503906 239.316406 612.308594 239.953125 C 612.117188 240.589844 611.953125 241.234375 611.824219 241.890625 C 611.695312 242.542969 611.597656 243.199219 611.53125 243.863281 C 611.464844 244.527344 611.433594 245.191406 611.433594 245.859375 L 611.433594 314.496094 L 542.792969 314.496094 C 542.128906 314.496094 541.464844 314.53125 540.800781 314.59375 C 540.136719 314.660156 539.476562 314.757812 538.824219 314.886719 C 538.171875 315.019531 537.527344 315.179688 536.886719 315.375 C 536.25 315.566406 535.625 315.792969 535.007812 316.046875 C 534.390625 316.300781 533.789062 316.585938 533.203125 316.898438 C 532.613281 317.214844 532.042969 317.554688 531.488281 317.925781 C 530.9375 318.296875 530.402344 318.695312 529.886719 319.117188 C 529.371094 319.539062 528.878906 319.984375 528.40625 320.457031 C 527.933594 320.929688 527.488281 321.421875 527.066406 321.9375 C 526.644531 322.453125 526.246094 322.988281 525.875 323.539062 C 525.503906 324.09375 525.164062 324.664062 524.847656 325.253906 C 524.535156 325.839844 524.25 326.441406 523.996094 327.058594 C 523.742188 327.675781 523.515625 328.300781 523.324219 328.9375 C 523.128906 329.574219 522.96875 330.222656 522.835938 330.875 C 522.707031 331.527344 522.609375 332.1875 522.542969 332.851562 C 522.480469 333.515625 522.445312 334.179688 522.445312 334.84375 C 522.445312 335.511719 522.480469 336.175781 522.542969 336.839844 C 522.609375 337.503906 522.707031 338.160156 522.835938 338.816406 C 522.96875 339.46875 523.128906 340.113281 523.324219 340.75 C 523.515625 341.390625 523.742188 342.015625 523.996094 342.632812 C 524.25 343.246094 524.535156 343.847656 524.847656 344.4375 C 525.164062 345.023438 525.503906 345.59375 525.875 346.148438 C 526.246094 346.703125 526.644531 347.238281 527.066406 347.753906 C 527.488281 348.269531 527.933594 348.761719 528.40625 349.234375 C 528.878906 349.703125 529.371094 350.152344 529.886719 350.574219 C 530.402344 350.996094 530.9375 351.394531 531.488281 351.761719 C 532.042969 352.132812 532.613281 352.476562 533.203125 352.789062 C 533.789062 353.105469 534.390625 353.386719 535.007812 353.644531 C 535.625 353.898438 536.25 354.121094 536.886719 354.316406 C 537.527344 354.507812 538.171875 354.671875 538.824219 354.800781 C 539.476562 354.929688 540.136719 355.027344 540.800781 355.09375 C 541.464844 355.160156 542.128906 355.191406 542.792969 355.191406 L 611.433594 355.191406 L 611.433594 423.804688 C 611.433594 424.46875 611.464844 425.136719 611.53125 425.796875 C 611.597656 426.460938 611.695312 427.121094 611.824219 427.773438 C 611.953125 428.425781 612.117188 429.074219 612.308594 429.710938 C 612.503906 430.347656 612.726562 430.976562 612.980469 431.589844 C 613.238281 432.207031 613.519531 432.808594 613.835938 433.394531 C 614.148438 433.984375 614.492188 434.554688 614.863281 435.109375 C 615.230469 435.664062 615.628906 436.195312 616.050781 436.710938 C 616.472656 437.226562 616.921875 437.71875 617.394531 438.191406 C 617.863281 438.664062 618.355469 439.109375 618.871094 439.53125 C 619.386719 439.957031 619.921875 440.351562 620.476562 440.722656 C 621.03125 441.09375 621.601562 441.433594 622.1875 441.75 C 622.777344 442.0625 623.378906 442.347656 623.992188 442.601562 C 624.609375 442.859375 625.234375 443.082031 625.875 443.273438 C 626.511719 443.46875 627.15625 443.628906 627.8125 443.761719 C 628.464844 443.890625 629.121094 443.988281 629.785156 444.054688 C 630.449219 444.117188 631.113281 444.152344 631.78125 444.152344 C 632.445312 444.152344 633.113281 444.117188 633.773438 444.054688 C 634.4375 443.988281 635.097656 443.890625 635.75 443.761719 C 636.402344 443.628906 637.050781 443.46875 637.6875 443.273438 C 638.324219 443.082031 638.953125 442.859375 639.566406 442.601562 C 640.183594 442.347656 640.785156 442.0625 641.371094 441.75 C 641.960938 441.433594 642.53125 441.09375 643.085938 440.722656 C 643.640625 440.351562 644.171875 439.957031 644.6875 439.53125 C 645.203125 439.109375 645.695312 438.664062 646.167969 438.191406 C 646.640625 437.71875 647.085938 437.226562 647.507812 436.710938 C 647.933594 436.195312 648.328125 435.664062 648.699219 435.109375 C 649.070312 434.554688 649.410156 433.984375 649.726562 433.394531 C 650.039062 432.808594 650.324219 432.207031 650.578125 431.589844 C 650.835938 430.976562 651.058594 430.347656 651.25 429.710938 C 651.445312 429.074219 651.605469 428.425781 651.738281 427.773438 C 651.867188 427.121094 651.964844 426.460938 652.03125 425.796875 C 652.09375 425.136719 652.128906 424.46875 652.128906 423.804688 L 652.128906 355.191406 L 720.710938 355.191406 C 721.378906 355.191406 722.042969 355.160156 722.707031 355.09375 C 723.371094 355.027344 724.027344 354.929688 724.683594 354.800781 C 725.335938 354.671875 725.980469 354.507812 726.617188 354.316406 C 727.257812 354.121094 727.882812 353.898438 728.5 353.644531 C 729.113281 353.386719 729.714844 353.105469 730.304688 352.789062 C 730.890625 352.476562 731.460938 352.132812 732.015625 351.761719 C 732.570312 351.394531 733.105469 350.996094 733.621094 350.574219 C 734.136719 350.152344 734.628906 349.703125 735.101562 349.234375 C 735.570312 348.761719 736.019531 348.269531 736.441406 347.753906 C 736.863281 347.238281 737.261719 346.703125 737.628906 346.148438 C 738 345.59375 738.34375 345.023438 738.65625 344.4375 C 738.972656 343.847656 739.257812 343.246094 739.511719 342.632812 C 739.765625 342.015625 739.988281 341.390625 740.183594 340.75 C 740.378906 340.113281 740.539062 339.46875 740.667969 338.816406 C 740.796875 338.160156 740.898438 337.503906 740.960938 336.839844 C 741.027344 336.175781 741.058594 335.511719 741.058594 334.84375 C 741.058594 334.179688 741.027344 333.515625 740.960938 332.851562 C 740.898438 332.1875 740.796875 331.527344 740.667969 330.875 C 740.539062 330.222656 740.378906 329.574219 740.183594 328.9375 C 739.988281 328.300781 739.765625 327.675781 739.511719 327.058594 C 739.253906 326.441406 738.972656 325.839844 738.65625 325.253906 C 738.34375 324.664062 738 324.09375 737.628906 323.539062 C 737.261719 322.988281 736.863281 322.453125 736.441406 321.9375 C 736.019531 321.421875 735.570312 320.929688 735.101562 320.457031 C 734.628906 319.984375 734.136719 319.539062 733.621094 319.117188 C 733.105469 318.695312 732.570312 318.296875 732.015625 317.925781 C 731.460938 317.554688 730.890625 317.214844 730.304688 316.898438 C 729.714844 316.585938 729.113281 316.300781 728.5 316.046875 C 727.882812 315.792969 727.257812 315.566406 726.617188 315.375 C 725.980469 315.179688 725.335938 315.019531 724.683594 314.886719 C 724.027344 314.757812 723.371094 314.660156 722.707031 314.59375 C 722.042969 314.53125 721.378906 314.496094 720.710938 314.496094 Z M 720.710938 314.496094 " fill-opacity="1" fill-rule="nonzero"/></svg>