<svg xmlns="http://www.w3.org/2000/svg" xmlns:xlink="http://www.w3.org/1999/xlink" width="1080" zoomAndPan="magnify" viewBox="0 0 810 809.999993" height="1080" preserveAspectRatio="xMidYMid meet" version="1.0"><defs><clipPath id="92726519e0"><path d="M 425 403 L 673.707031 403 L 673.707031 652.203125 L 425 652.203125 Z M 425 403 " clip-rule="nonzero"/></clipPath><clipPath id="eb507d0885"><path d="M 259 117.453125 L 477 117.453125 L 477 335 L 259 335 Z M 259 117.453125 " clip-rule="nonzero"/></clipPath></defs><g clip-path="url(#92726519e0)"><path fill="#e12c2c" d="M 610.660156 559.535156 C 618.722656 567.59375 618.722656 580.789062 610.660156 588.847656 C 602.597656 596.910156 589.40625 596.910156 581.34375 588.847656 L 549.75 557.257812 L 518.15625 588.847656 C 510.101562 596.910156 496.902344 596.910156 488.847656 588.847656 C 480.785156 580.789062 480.785156 567.59375 488.847656 559.535156 L 520.433594 527.941406 L 488.847656 496.351562 C 480.785156 488.289062 480.785156 475.09375 488.847656 467.035156 C 496.902344 458.972656 510.101562 458.972656 518.15625 467.035156 L 549.75 498.625 L 581.34375 467.035156 C 589.40625 458.972656 602.597656 458.972656 610.660156 467.035156 C 618.722656 475.09375 618.722656 488.289062 610.660156 496.351562 L 579.066406 527.941406 Z M 549.75 403.734375 C 481.152344 403.734375 425.542969 459.34375 425.542969 527.941406 C 425.542969 596.539062 481.152344 652.148438 549.75 652.148438 C 618.351562 652.148438 673.960938 596.539062 673.960938 527.941406 C 673.960938 459.34375 618.351562 403.734375 549.75 403.734375 " fill-opacity="1" fill-rule="nonzero"/></g><g clip-path="url(#eb507d0885)"><path fill="#e12c2c" d="M 476.160156 225.941406 C 476.160156 285.859375 427.585938 334.433594 367.660156 334.433594 C 307.742188 334.433594 259.167969 285.859375 259.167969 225.941406 C 259.167969 166.015625 307.742188 117.441406 367.660156 117.441406 C 427.585938 117.441406 476.160156 166.015625 476.160156 225.941406 " fill-opacity="1" fill-rule="nonzero"/></g><path fill="#e12c2c" d="M 395.929688 527.941406 C 395.929688 461.964844 437.6875 405.5625 496.152344 383.757812 C 476.671875 370.742188 455.109375 360.59375 432.066406 353.9375 C 429.246094 355.355469 426.371094 356.695312 423.445312 357.929688 C 405.757812 365.410156 386.992188 369.207031 367.664062 369.207031 C 348.339844 369.207031 329.570312 365.410156 311.890625 357.929688 C 308.960938 356.695312 306.089844 355.355469 303.265625 353.9375 C 206.695312 381.835938 136.070312 470.898438 136.070312 576.460938 L 403.777344 576.460938 C 398.691406 561.199219 395.929688 544.886719 395.929688 527.941406 " fill-opacity="1" fill-rule="nonzero"/></svg>